<?xml version="1.0" standalone="no"?>
<!DOCTYPE svg PUBLIC "-//W3C//DTD SVG 1.1//EN" "http://www.w3.org/Graphics/SVG/1.1/DTD/svg11.dtd" >
<svg xmlns="http://www.w3.org/2000/svg">
<metadata></metadata>
<defs>
<font id="_.phonepadtworegular" horiz-adv-x="1138" >
<font-face units-per-em="2048" ascent="1638" descent="-410" />
<missing-glyph horiz-adv-x="569" />
<glyph horiz-adv-x="2048" />
<glyph horiz-adv-x="2048" />
<glyph unicode="&#xa;" horiz-adv-x="569" />
<glyph unicode="&#xd;" horiz-adv-x="569" />
<glyph unicode=" "  horiz-adv-x="569" />
<glyph unicode="&#x09;" horiz-adv-x="569" />
<glyph unicode="&#xa0;" horiz-adv-x="569" />
<glyph unicode="!" horiz-adv-x="569" d="M74 -4q0 68 49 74l47 6q51 0 74 -39q6 -18 6 -35q0 -70 -103 -92h-36q-37 29 -37 70v16zM84 381v47q0 68 39 442q18 213 18 336v66l-6 153q45 47 88 54l37 12l57 -49v-142q0 -150 -41 -757q-2 -242 -30 -242q-35 -37 -76 -43h-16q-70 14 -70 123z" />
<glyph unicode="&#x22;" horiz-adv-x="727" d="M0 993q23 111 23 135v2q0 43 -23 228v24q0 103 123 103h2q47 -59 47 -209v-19l-6 -286q-41 -78 -88 -78h-19q-59 18 -59 100zM276 1247v25q0 162 52 190q24 15 53 15q47 -4 53 -19q4 -117 4 -207v-28q-2 -256 -18 -256q-55 -41 -68 -41q-61 0 -76 321z" />
<glyph unicode="#" horiz-adv-x="1370" d="M14 598v12q0 53 86 105q78 14 176 14l7 191h-7l-159 -11q-102 6 -103 49v13q0 47 76 96q35 23 170 23h35l10 213q31 20 51 20h15q43 0 94 -72v-12l-4 -154l192 -12l17 230q25 20 47 20h12q51 0 96 -76v-90l-2 -94l189 -6q18 -29 18 -49v-21q0 -45 -74 -90h-69l-74 4 l-8 -196q213 -8 213 -17l12 -35v-26q0 -37 -67 -88h-158v-4l8 -138q-6 -90 -47 -90h-16q-53 0 -101 84q-14 70 -14 156l-193 10v-4l13 -143q-10 -102 -47 -103h-19q-55 0 -102 88q-10 63 -11 137v21l-2 4v2l-18 -2l-139 -8h-17q-82 8 -82 43zM442 727l15 -2l180 -8l8 190 l-2 2h-4l-184 11z" />
<glyph unicode="$" d="M0 754v26l8 56v22q127 104 346 131l146 8l41 263q25 76 61 104q19 14 29 14h33q37 0 73 -55l-24 -299l-4 -2q131 -25 165 -61l13 -19v-2q-76 -100 -96 -100l-13 -2l-37 6q-18 -6 -18 -37l10 -152q119 -47 383 -118q152 -45 264 -150v-4q-41 -139 -129 -207 q-135 -86 -190 -86q-72 -25 -277 -41l-2 -18q0 -47 37 -193q-47 -82 -110 -82h-9q-49 0 -106 47q-20 74 -41 254l-14 -4h-68q-219 0 -348 121q-37 45 -37 90q0 59 53 131h33q8 0 27 31q0 -6 43 -14v-23q0 -115 184 -153q45 -10 104 -11l5 15v24q0 135 -27 277q-37 0 -283 84 q-217 92 -225 129zM336 791q23 0 137 -48l29 -2v2l-8 80q-154 -14 -154 -32h-4zM754 416l12 -195h4q199 0 358 96v5q-72 18 -278 104l-94 27z" />
<glyph unicode="%" horiz-adv-x="1820" d="M0 10v27q0 45 184 160q106 74 410 378l395 388q184 207 264 262q84 59 172 88q16 0 29 -123q4 0 4 -23q-662 -662 -885 -858l-415 -356q-37 -14 -54 -14q-72 0 -104 71zM184 1137q8 162 56 161q37 14 51 15h6l22 -4q34 55 89 55h6q78 0 200 -102q10 -29 17 -99 q0 -172 -156 -284h-4q-47 10 -86 10h-78q-59 0 -71 29q-51 98 -52 219zM340 1108q10 -8 25 -51q92 16 92 63l2 17v12q0 33 -27 33q-39 0 -92 -74zM815 150l29 165v33q105 98 205 98h57q139 -143 139 -194v-39q0 -100 -74 -203q-55 -43 -137 -43q-150 0 -209 127 q-10 31 -10 56zM971 242q0 -51 67 -66h4q18 10 19 27v10q0 74 -19 74h-20q-43 0 -51 -43v-2z" />
<glyph unicode="&#x26;" horiz-adv-x="1366" d="M0 313q0 182 236 275v4q-49 2 -187 127v10q0 197 227 266l113 27q27 295 107 295h20q51 0 57 -78l5 -25q-6 -88 -21 -167q47 -18 217 -58q63 -33 64 -57v-29q0 -59 -78 -67h-35q-35 0 -164 26q-18 -31 -18 -53l2 -86q55 0 119 -64l-9 -65l9 -29q-29 0 -70 -43 q-8 -8 -25 -8h-12q-12 -31 -12 -61v-23q0 -47 12 -90h6q88 0 266 66q68 8 68 34q8 0 10 41v21l6 6h9l47 -12l12 4q31 -35 31 -80v-12q0 -156 -353 -232l-88 -10v-4q0 -31 31 -221v-11q0 -57 -57 -69q-8 0 -25 -17h-12l-33 31q-2 -20 -8 -20q-47 59 -59 170q-18 141 -46 141 q-139 12 -223 49q-80 37 -139 98zM225 383l131 -25h25v41q-4 45 -14 45q-111 -20 -140 -55l-2 -2v-4zM260 791q63 -33 111 -33v53q0 25 -13 25q-59 0 -98 -45z" />
<glyph unicode="'" horiz-adv-x="391" d="M0 1401q39 74 119 74h10q61 0 61 -43l3 -140v-37q0 -246 -101 -313q-39 -16 -67 -16q-10 18 -15 178l4 78q-4 137 -14 219z" />
<glyph unicode="(" horiz-adv-x="681" d="M-8 686v31q0 238 172 516q157 221 317 221h27q29 0 29 -55q0 -121 -183 -240q-115 -90 -114 -170q-72 -188 -72 -254v-18q0 -270 350 -543v-8q0 -106 -88 -139l-29 -2q-104 0 -266 266q-143 190 -143 395z" />
<glyph unicode=")" horiz-adv-x="681" d="M45 1214v21q0 86 76 119l22 8h21q109 0 311 -320q113 -154 113 -360v-10q0 -231 -129 -471q-172 -268 -367 -269h-8q-20 8 -21 60q12 121 37 121q119 72 244 247q0 35 57 220l11 69v19q0 272 -359 536z" />
<glyph unicode="*" horiz-adv-x="849" d="M63 1077q0 57 58 86l33 11q51 -27 106 -27q29 0 29 16l6 49l-6 142q0 70 57 86h25q29 -31 55 -113q33 -131 33 -153l178 26h4q14 0 25 -37v-4q0 -72 -25 -72q-33 -23 -123 -45q18 -45 131 -118l43 -43q-25 -78 -39 -78h-20q-94 0 -184 94l-52 47q-31 -14 -137 -94 q-49 -25 -104 -25q-27 27 -27 58q0 47 92 118q-35 12 -131 46q-27 20 -27 30z" />
<glyph unicode="+" horiz-adv-x="1351" d="M0 641v16q0 59 90 60q129 -12 201 -12h33l-2 118q4 178 36 178q45 47 93 54h22q45 0 53 -74v-25l-10 -143v-96q150 14 289 14q59 -59 59 -121q-6 -61 -28 -61l-306 -25q10 -133 11 -221v-49q-51 -63 -117 -64q-66 6 -66 23l-22 303l-21 -4h-110q-145 0 -170 51 q-35 47 -35 78z" />
<glyph unicode="," horiz-adv-x="569" d="M8 -178q0 80 109 254q41 90 41 166l-6 63q37 33 98 33h10q49 0 80 -29v-41q0 -238 -213 -430q-16 -37 -66 -37h-36q-16 0 -17 6v15z" />
<glyph unicode="-" horiz-adv-x="641" d="M8 395v6q0 55 58 97q33 14 96 14h33q123 0 479 -31q18 -23 18 -51q0 -53 -53 -94l-422 22l-131 -8h-20q-57 0 -58 45z" />
<glyph unicode="." horiz-adv-x="569" d="M66 86v12q0 66 71 105l64 10h12q84 -18 84 -72v-8q0 -80 -119 -133l-26 -2q-59 0 -84 68z" />
<glyph unicode="/" horiz-adv-x="569" d="M0 31v8q49 133 344 455l496 489q199 207 254 293q55 55 102 55h10q39 0 74 -41q0 -92 -92 -221q-66 -53 -133 -145q-14 -31 -594 -602q-184 -199 -268 -328q-98 -49 -111 -49h-6q-10 6 -10 20v8l4 23l-35 -2q-20 4 -21 22l4 2q-10 0 -18 13z" />
<glyph unicode="0" d="M0 700v43q0 145 66 392q29 88 118 178l21 22q-14 8 -15 33q84 107 201 107h19q174 0 303 -177l127 -196q115 -199 114 -375q0 -254 -176 -526q-133 -166 -311 -166h-37q-231 0 -360 287q-70 170 -70 378zM186 723q0 -166 60 -270q51 -170 88 -170q80 -72 153 -72 q82 0 201 184q84 172 84 303v31q0 182 -237 477q-59 70 -101 80l-10 4q0 -27 -27 -26q-205 -102 -211 -541z" />
<glyph unicode="1" horiz-adv-x="792" d="M145 1020v10q0 27 82 154q35 72 103 268q12 14 82 41h18q33 0 49 -76q10 -12 10 -18q0 -35 -90 -559q-14 -84 -14 -162l21 -387q0 -225 -105 -287q0 27 -68 39q-37 119 -36 414v12q0 270 18 420v4q0 29 -65 111z" />
<glyph unicode="2" d="M23 166v12q0 41 53 144q186 147 446 428q162 203 219 315l-2 18v82q0 37 -51 45q-25 10 -67 15q-162 0 -279 -201q-35 -84 -39 -86q-41 -25 -82 -25q-74 10 -74 37q0 123 109 287q183 223 406 223h22q188 0 260 -178q18 -49 19 -111v-22q0 -221 -205 -459 q-139 -162 -262 -268q-80 -82 -109 -119v-2q295 -39 418 -39q61 0 203 23h2q76 0 75 -64v-24q-10 -100 -28 -101q-115 -76 -367 -76q-530 20 -530 39q-133 33 -133 76z" />
<glyph unicode="3" d="M0 440v2q0 6 31 25q29 47 47 47q53 0 211 -139q213 -125 401 -125h35q86 0 143 80l4 24q-12 63 -170 166q-41 20 -198 58q-109 41 -109 108q0 96 240 188q55 18 125 117l-4 39l24 94q-12 8 -55 15q-74 0 -291 -119q-51 -25 -90 -25q-55 0 -68 78v14q0 14 31 52 q4 47 273 168q108 32 184 32h24q104 0 195 -55q2 -14 18 -29q6 -45 7 -90v-10q0 -225 -226 -387l-20 -20v-5q102 -41 250 -188q82 -109 82 -205q0 -156 -189 -264q-109 -51 -235 -51h-31q-291 0 -547 221q-74 70 -74 109q0 16 -18 75z" />
<glyph unicode="4" horiz-adv-x="1185" d="M0 516v10q0 82 154 248l374 424q146 205 166 205q53 0 72 -80v-25q0 -12 -31 -92q-14 -51 -24 -391l-15 -84h4q55 0 252 64l68 10q68 0 113 -47q-14 0 -54 -133q-6 -14 -20 -15q-92 -20 -303 -94q-55 -8 -56 -18q-6 -37 -6 -103l23 -297v-24q0 -70 -43 -123 q-12 -12 -25 -12q-53 0 -84 153q-4 41 -8 330q-8 57 -10 57q-276 -57 -414 -57h-12l-88 2q-33 37 -33 92zM291 684q207 20 272 33v4l8 176q0 49 -10 96q-61 -70 -194 -200q-60 -68 -76 -109z" />
<glyph unicode="5" d="M4 270v11q0 6 41 26q70 37 96 37q29 0 80 -78q117 -53 178 -53h7q270 51 382 236q115 127 89 278l-31 96q-33 45 -189 45q-100 0 -323 -82q-59 -16 -98 -16h-31q-63 0 -113 49q-16 61 -16 119v27q0 135 88 331q98 51 106 52q20 0 84 -27q250 53 385 53q27 9 250 62 q0 -14 45 -35q18 -10 25 -29q0 -217 -320 -217l-184 8q-244 8 -244 -16q-29 -63 -28 -113v-18l4 -12q248 51 405 51q246 0 322 -133q61 -51 61 -179q18 -166 -71 -342q-98 -186 -261 -286q-188 -113 -331 -113h-33q-178 0 -369 182v6l10 66z" />
<glyph unicode="6" d="M0 502v33q0 344 287 745q151 190 272 190h10q53 0 54 -22q8 -35 8 -62v-28q0 -168 -176 -314q-8 0 -9 13q-10 43 -36 43q-41 -25 -91 -103q-90 -182 -100 -372l8 -4h13q268 272 290 272q172 123 293 123h27q111 0 184 -121q45 -78 45 -201v-6q0 -254 -157 -495 q-166 -199 -420 -199q-223 0 -396 166q-106 150 -106 342zM311 371q0 -88 178 -146q35 -10 72 -10q176 0 295 209q45 92 45 188q-12 145 -47 146h-45h-25q-223 0 -432 -309q-41 -58 -41 -70v-8z" />
<glyph unicode="7" d="M8 1251q53 41 53 64q0 8 320 39q395 35 594 35q14 -25 14 -91v-10q0 -131 -102 -362q-18 -37 -43 -117l39 -4h116q98 0 99 -27l4 -30v-7q0 -98 -129 -118q-43 -4 -178 -9q-35 -23 -99 -258q-68 -252 -125 -327q-49 -49 -98 -49q-68 10 -67 26q0 74 172 535l12 34v3 q-43 25 -78 24h-6l-94 -8h-6q-55 0 -101 76q6 33 43 88q0 23 82 22q96 0 225 31q53 109 54 170q23 135 49 195q-100 -8 -252 -9h-127q-131 0 -283 -24h-14q-49 0 -62 43v33q0 20 -12 32z" />
<glyph unicode="8" d="M47 1098v22q0 92 51 154q126 102 357 102h28q301 0 463 -141q39 -53 39 -123q0 -137 -235 -297q-55 -39 -80 -72q33 -47 166 -125q205 -117 204 -294v-13q0 -193 -211 -307q-90 -41 -180 -41h-37q-139 0 -170 57q-29 20 -118 35q-162 94 -162 264v17q0 186 164 373v2 q-279 211 -279 387zM270 1124q33 -123 144 -198l92 -66q123 74 196 146l25 30v4q-25 0 -70 84q-66 57 -170 58h-30q-113 0 -187 -56v-2zM371 340q0 -63 45 -88q82 -74 190 -88q12 -4 47 -4h35q98 0 139 84l2 41v12q0 115 -266 248q-33 22 -76 55q-117 -129 -116 -252v-8z " />
<glyph unicode="9" d="M78 817v23q0 195 239 430q156 131 359 131h37q139 -6 170 -78v-4q0 -8 -39 -47l-4 -15h4q49 -23 49 -104v-18q0 -61 -57 -332q-25 -209 -25 -320v-106q0 -254 51 -359q-35 -88 -110 -88q-92 0 -134 117q-18 90 -18 189l27 483v14l-4 2v2q-147 -84 -217 -114 q-49 -23 -99 -23h-14q-152 0 -207 156q-8 33 -8 61zM289 823l4 -30h26q143 0 275 180l74 84v10q0 27 37 123l4 20q-33 10 -74 11q-135 0 -246 -115q-100 -123 -100 -266v-17z" />
<glyph unicode=":" horiz-adv-x="569" d="M0 610v31q0 95 125 111h16q90 -12 90 -76v-12q0 -86 -118 -111h-21q-57 0 -92 57zM8 176q0 80 72 115l70 12q86 -23 86 -67v-19q0 -80 -113 -129l-27 -2h-4q-74 0 -84 90z" />
<glyph unicode=";" horiz-adv-x="569" d="M0 -20q59 225 94 280q44 66 105 66h2q47 0 90 -31q10 -12 10 -33q0 -109 -162 -354q-25 -16 -41 -17h-14q-43 0 -84 89zM57 602q0 68 88 98l29 2h16q78 -12 78 -69v-10q0 -84 -112 -103h-25q-43 0 -51 29q-23 41 -23 53z" />
<glyph unicode="&#x3c;" horiz-adv-x="888" d="M0 506v20q0 66 96 117q109 78 383 215l113 60q61 -35 61 -111q0 -51 -28 -64q-113 -68 -328 -178l-70 -45v-4q152 -86 545 -387l2 -2v-18q0 -66 -100 -95l-23 -4q-98 63 -397 283q-84 53 -184 104q-70 41 -70 109z" />
<glyph unicode="=" horiz-adv-x="976" d="M0 641v4q0 70 82 113q60 6 111 6h34q147 0 572 -33q16 -25 16 -45v-12q0 -55 -59 -101l-500 25l-170 -10q-86 0 -86 53zM57 311v23q27 106 107 106l84 4q156 0 518 -36q12 -33 12 -50q0 -63 -53 -102l-8 -2l-438 22l-144 -10h-16q-61 8 -62 45z" />
<glyph unicode="&#x3e;" horiz-adv-x="880" d="M0 96v4q10 16 303 232q227 162 242 162v2q-84 59 -344 192q-76 43 -76 60q-6 14 -6 43q-1 71 65 102q238 -117 482 -260q109 -68 108 -123v-25q0 -88 -119 -131q-141 -78 -436 -301q-92 -59 -100 -59q-119 14 -119 102z" />
<glyph unicode="?" d="M0 1323v14q0 35 66 95q8 23 26 22q90 16 164 16h27q307 0 522 -196q49 -51 49 -62q0 -274 -389 -350l-209 -39q35 -250 35 -291v-12q0 -102 -29 -102q-43 -41 -104 -56q-16 4 -76 60l8 51q0 80 -76 350l-2 56q0 94 68 139q537 45 573 115q0 41 -215 118q-135 41 -221 41 q-47 0 -125 -49l-16 -4h-6q-59 0 -70 84zM113 -47q0 104 102 139l12 2q74 0 84 -61v-31q0 -90 -80 -129l-34 -8q-84 10 -84 82v6z" />
<glyph unicode="@" horiz-adv-x="2078" d="M43 471v33q0 258 170 434q106 96 446 96h15q221 0 297 -170q68 -172 67 -307v-33q0 -154 -118 -211q-39 -16 -95 -16q-117 0 -188 221l-12 6q-121 -205 -217 -205l-17 -2q-96 10 -96 89v18q0 104 145 256q61 41 185 104q0 6 34 9h11q47 0 57 -150q33 -127 78 -158 q20 -14 43 -22q51 12 51 100l2 21q0 143 -67 243q-66 72 -170 72q-195 0 -297 -55q-143 -131 -144 -359q0 -211 162 -280q172 -66 272 -66h13q209 0 385 156q37 41 61 92q27 23 64 23q86 -10 86 -66v-4q-6 -51 -88 -150q-229 -195 -541 -194h-4q-233 0 -440 133 q-150 129 -150 342zM420 436h6q45 0 137 160q10 12 21 59l-6 7q-158 -105 -158 -218v-8z" />
<glyph unicode="A" horiz-adv-x="1366" d="M-53 489q20 43 86 72l213 66q23 6 69 86q168 260 246 444q37 80 78 213q36 80 104 80h7q80 0 188 -111v-28q0 -199 135 -592l33 -4l121 8q59 0 59 -35q10 -2 10 -8q0 -78 -100 -105l-63 -14q131 -328 233 -442q80 -74 80 -144q0 -35 -37 -51q0 -10 -45 -16h-18 q-98 0 -242 325q-80 137 -152 314l-92 6q-408 -27 -407 -74q-23 -20 -113 -221q-55 -82 -125 -82h-18q-66 0 -74 35l-8 47q0 31 30 145q0 14 -155 37q-43 23 -43 49zM580 696h4q41 0 241 45l39 2h2q-53 205 -86 246l-22 25q-117 -180 -178 -318z" />
<glyph unicode="B" horiz-adv-x="1366" d="M0 1362v22q0 51 197 60l10 4v2q0 86 108 121h37q84 0 101 -78q0 -23 12 -23l375 -28q156 -31 219 -94q43 -41 43 -58v-4q-49 -156 -240 -287q-92 -57 -241 -161v-4l4 -5h8q246 0 346 5q293 -8 326 -62q29 -31 28 -74v-16q0 -133 -205 -295q-217 -154 -518 -278 q6 -12 6 -31v-8q0 -45 -79 -97h-9q-14 0 -75 60l-33 10l-158 -20h-14q-84 0 -121 81q-6 10 -6 41q0 53 84 72q150 2 149 16l-69 379l-107 41l-16 88v17q0 20 82 80q-27 252 -37 415l-57 -2q-137 0 -138 58q-12 35 -12 53zM207 1257h10l-6 5h-4v-5zM430 1249q0 -106 16 -278 q59 29 201 139q88 47 156 111l12 24v6q-104 29 -225 29q-68 0 -160 -12v-19zM436 961l2 -5h4v13zM479 616h6v5zM487 612l56 -272l16 -39q233 109 391 225q70 55 107 103v4q-92 10 -166 10h-14q-173 0 -390 -27v-4zM608 109v4v-4zM1067 635l4 -6h6l-2 16z" />
<glyph unicode="C" horiz-adv-x="1478" d="M0 623v22q0 322 473 655q244 150 371 150h20q141 -14 142 -94v-8q0 -96 -289 -160q-152 -63 -348 -244q-152 -170 -152 -326v-24q0 -223 311 -295q80 -16 170 -16q326 0 555 211q53 37 211 198q152 131 258 131l7 -6v-6q0 -117 -130 -242q0 -18 -155 -180 q-342 -317 -778 -317q-434 0 -588 284q-78 127 -78 267z" />
<glyph unicode="D" horiz-adv-x="1478" d="M-164 1190v22q0 35 92 88l11 13q227 -61 286 -62v9q0 111 101 137l24 2h15q84 0 96 -99v-12q0 -27 -12 -63q84 -57 358 -148q88 -39 256 -133l221 -86q223 -117 223 -254v-14q0 -262 -616 -447q-127 -31 -217 -61v-10l2 -27q0 -16 -98 -45l-27 -4q-23 0 -82 35 q-45 14 -236 18q-61 14 -86 53l-8 21q23 84 66 110l28 21q106 -25 136 -25h16q-94 367 -127 578q-14 119 -14 227q-39 31 -287 62q-121 29 -121 94zM449 985q0 -289 159 -731q188 41 340 96q266 102 299 142q43 45 43 77v11q0 100 -313 231q-334 176 -520 176h-8v-2z" />
<glyph unicode="E" horiz-adv-x="1366" d="M-61 1128v31q0 121 215 166q8 0 53 55q8 0 63 47h9q74 0 141 -75h2q92 0 299 67q51 21 104 21h15q61 0 94 -25v-26q0 -164 -383 -205q-219 -23 -219 -39q-33 -90 -33 -219v-35q356 90 539 90q135 -4 135 -18v-25q0 -18 16 -33q-39 -63 -164 -104q-90 -20 -387 -58 q-59 -14 -123 -38q53 -240 123 -416l35 -72l14 -2q96 0 353 121q270 119 428 119q111 -6 110 -19v-100q0 -8 -118 -25q-328 -80 -601 -295q-102 -65 -182 -65h-2h-33q-115 0 -188 215q-55 135 -143 457q-51 0 -111 45v12q0 53 72 137q12 12 12 19l-2 34l10 211l2 2l-37 -2 h-26q-92 0 -92 47z" />
<glyph unicode="F" horiz-adv-x="1251" d="M-76 1159v31q0 117 215 166q6 0 54 53q8 0 63 47h6q76 0 141 -74h7q90 0 295 68q53 18 104 18h16q61 0 90 -22v-27q0 -164 -376 -207q-223 -18 -224 -36q-30 -89 -30 -216v-8v-30q354 88 538 88q135 -4 135 -17v-22q0 -18 15 -35q-37 -66 -164 -105q-88 -20 -387 -59 q-57 -14 -123 -37q-8 -137 -8 -253t8 -210q35 -78 96 -168q10 -25 11 -43q0 -61 -105 -81h-20q-133 0 -170 348l-17 327q-59 0 -108 41v13q0 53 71 137q10 14 11 22v31l8 213l2 2l-37 -2h-27q-90 0 -90 47z" />
<glyph unicode="G" horiz-adv-x="1593" d="M8 791v32q0 381 197 623q119 121 254 121h22q193 0 320 -254q41 -115 41 -164q-63 -80 -72 -86q-27 -18 -39 -19h-4q-43 0 -115 160q-39 113 -106 144l-14 12q-96 -27 -144 -90q-121 -147 -121 -416v-31q0 -401 226 -676q71 -75 143 -75h2q168 0 311 413q29 90 58 252 q-86 -10 -359 -69v12q0 29 -59 47q-27 18 -27 37v2q0 117 289 160q151 22 284 22h11q47 0 47 -18q8 -45 10 -103q0 -207 -184 -628q-104 -207 -291 -291q-39 -16 -82 -17h-12q-160 0 -318 144q-268 356 -268 756z" />
<glyph unicode="H" horiz-adv-x="1478" d="M18 524q2 104 39 105h138q49 4 49 14q-35 403 -51 858v6q12 213 69 213l37 4q94 -4 94 -34q20 -23 21 -58l-6 -135q0 -168 38 -766l7 -82h18q207 0 354 29q-27 709 -43 928v22q0 115 80 135h27q90 0 104 -63q4 -10 8 -62l13 -219q0 -96 12 -661q10 -80 21 -80 q301 -43 325 -133q0 -74 -94 -74h-18q-201 8 -201 18v5l-6 -5q8 0 8 -71v-31q10 -59 41 -565l2 -31v-4q-35 -39 -113 -39q-86 0 -86 35q-20 135 -49 561q-10 125 -16 127l-62 2l-307 -10q12 -227 12 -289v-22q0 -142 -49 -142l-92 6l-35 -6q-33 0 -33 142q0 35 2 77 q-8 215 -22 226l-23 -6l-28 -3q-139 0 -172 48q-12 16 -13 30z" />
<glyph unicode="I" horiz-adv-x="569" d="M0 1303v141q0 66 14 84q39 37 80 37h17q90 0 122 -99v-14l-26 -98q-8 -74 -8 -152v-76q0 -215 116 -874l25 -246q-37 -47 -111 -47q-82 8 -82 35q-139 856 -139 1122q-8 0 -8 187z" />
<glyph unicode="J" horiz-adv-x="1024" d="M0 735v21q0 114 62 114h1h29q104 0 162 -112l4 -31q0 -33 -33 -78q113 -299 303 -495l97 -78q120 122 120 544v7q0 254 -90 716l-8 84q1 105 64 117h18q43 0 100 -39l89 -631q18 -195 18 -299q0 -332 -92 -561q-81 -153 -201 -153h-2h-25q-145 0 -282 184 q-74 82 -158 238q-176 307 -176 452z" />
<glyph unicode="K" horiz-adv-x="1366" d="M0 799v22q0 29 139 82l51 37l-4 64v65q0 158 58 369q24 14 55 14h27q78 0 77 -45v-57q0 -37 -38 -271l-3 -67q236 100 492 268l123 94q145 -12 145 -67v-21q0 -66 -245 -196q-129 -82 -408 -238q-18 0 -107 -43l-8 -47q0 -72 115 -127q297 -231 461 -322 q160 -100 239 -100q150 -4 150 -29q27 -20 27 -73q-88 -41 -170 -41h-27q-213 0 -580 274q-156 98 -172 98l-2 -14v-14q0 -51 35 -332v-70q-31 -39 -80 -39h-18q-70 8 -74 37l-53 398q-8 190 -41 208q-16 20 -127 101q-37 39 -37 82z" />
<glyph unicode="L" d="M0 1034v166l4 123q14 8 33 47q31 19 51 19h27q72 0 96 -41q12 -20 12 -37v-15l-24 -180l-6 -143q0 -201 61 -791q35 0 321 129q397 190 619 191q90 0 143 -21l-4 -80v-30q0 -10 -123 -21q-190 -47 -327 -104q-180 -86 -367 -191q-150 -75 -275 -75h-3q-156 12 -156 40 q-82 496 -82 1014z" />
<glyph unicode="M" horiz-adv-x="1705" d="M0 645v21q0 84 94 84l15 -2q33 70 108 374q70 219 186 219q143 0 244 -387q37 -104 101 -424q55 131 100 388q68 489 131 643l76 8h49q59 -66 106 -232q49 -199 191 -579q180 -559 340 -776q20 -29 22 -56v-8q-18 -78 -77 -78l-29 -2q-125 0 -230 273q-100 209 -319 829 l-41 111h-4q-45 -184 -109 -609q-92 -401 -92 -526q-33 -8 -33 -43q0 -10 -100 -29h-31q-33 0 -43 39q-31 63 -51 264l-88 502q-49 201 -113 322l-10 20h-4q-55 -139 -121 -567q-37 -190 -71 -231q-35 -31 -82 -31h-21q-57 0 -57 35q-14 53 -14 104l4 178q0 31 -27 166z" />
<glyph unicode="N" horiz-adv-x="1478" d="M0 197v34q0 98 68 508q6 80 14 322q14 121 49 168l4 4l4 -4h68l47 4q82 -160 233 -571q117 -268 222 -383l43 -48h4l20 1299q37 39 82 39h12q78 0 107 -86l2 -21q-25 -72 -25 -104l-12 -694q0 -285 37 -555v-39q0 -135 -49 -136l-58 -8h-6q-154 0 -307 260 q-51 78 -209 369l-67 98h-4q-45 -129 -66 -456q-4 -158 -16 -158q-35 -23 -97 -23h-12q-49 0 -57 27q-31 70 -31 154z" />
<glyph unicode="O" horiz-adv-x="1593" d="M0 748v45q0 358 129 589q66 70 135 84q99 19 160 19h10q276 0 422 -660q20 -117 21 -227v-12q0 -258 -109 -424q-129 -160 -285 -160h-32q-180 0 -326 229q-125 225 -125 517zM182 793q14 -463 219 -584q49 -23 82 -23h13q111 0 184 174q29 96 29 199v39q0 268 -131 545 q-98 164 -162 164h-8q-43 0 -74 -99h-2l-47 11h-13q-18 -6 -53 -129q-37 -158 -37 -297z" />
<glyph unicode="P" horiz-adv-x="1366" d="M0 1333v21q29 96 41 96l109 33q34 86 114 86h21q72 0 92 -68q0 -29 31 -28q268 -57 518 -193q207 -104 207 -276v-17q0 -199 -195 -358q-150 -111 -326 -191l-141 -55q59 -244 59 -356v-29q0 -121 -65 -145q-125 0 -152 315q-31 156 -55 156q-6 8 -61 20q-20 14 -35 80 l-8 10v4q0 12 69 72v2q-47 150 -69 578l-9 163q-145 57 -145 80zM344 1280q29 -618 74 -709q190 68 313 142q139 86 187 237q8 12 8 37v4q0 168 -574 289h-8z" />
<glyph unicode="Q" horiz-adv-x="1593" d="M23 541v30q0 324 208 721q203 148 299 148h27q170 0 377 -344q205 -332 205 -527v-22q0 -137 -74 -285q63 -94 135 -137q41 -16 119 -27q35 -39 35 -104q-6 -96 -51 -103h-37q-125 0 -262 140l-72 51q-150 -82 -324 -82q-256 0 -442 154q-143 147 -143 387zM231 537 q0 -264 252 -357q73 -24 139 -24h5q98 0 174 59q-88 117 -279 270q-156 127 -155 195q18 102 104 102h4q72 0 227 -180q6 0 158 -147l55 -58q25 0 33 140v8q0 219 -274 598q-100 108 -182 108q12 -78 12 -121v-6q0 -51 -27 -80h-6q-14 0 -65 58q-12 10 -29 10 q-96 0 -146 -516v-59z" />
<glyph unicode="R" horiz-adv-x="1478" d="M-92 1198v16q0 98 270 117h15q32 74 106 74h14q88 0 88 -84q111 0 734 -184q125 -45 125 -99v-4q0 -256 -353 -395q-135 -61 -223 -113q203 -96 688 -284q293 -100 383 -146v-8q0 -100 -153 -117l-35 -2q-201 0 -811 310q-244 94 -303 94v-21q0 -27 41 -235l4 -29 q0 -115 -131 -115q-51 29 -84 140l-62 297h-127q-109 0 -108 61q0 104 190 154v2q-26 115 -26 385v20v127h-27l-154 -16q-61 10 -61 55zM350 946q0 -156 43 -313q326 78 469 160q121 78 174 168v4q-416 145 -477 145q-107 23 -201 23q-8 -43 -8 -127v-60z" />
<glyph unicode="S" horiz-adv-x="1366" d="M0 999v21q0 168 283 321q138 74 292 74h33q242 0 322 -102q6 -16 6 -33q0 -33 -82 -47q-18 -6 -63 -6h-29l-215 6q-113 0 -248 -121q-35 -39 -68 -90q47 -70 142 -98q156 -55 499 -160q426 -131 426 -307v-23q0 -233 -593 -379q-162 -37 -291 -37q-287 0 -361 123 q-16 41 -16 78q0 123 135 205q51 25 92 25q10 -23 10 -54l-18 -149q113 -33 225 -33q287 0 520 141q45 37 70 68q-76 86 -158 121q-119 59 -548 170q-365 121 -365 286z" />
<glyph unicode="T" horiz-adv-x="1251" d="M-61 1133v18q0 59 79 111q223 41 568 41q240 0 549 45l77 2h39q109 0 138 -54l4 -16v-8q0 -109 -439 -156h-6l-119 2l-30 -2q-23 -178 -23 -313l27 -555v-166q0 -53 -25 -64q-81 -30 -137 -30h-4q-72 211 -72 538q-8 125 -8 236v26l4 293q-43 18 -127 19l-307 -10h-55 q-133 0 -133 43z" />
<glyph unicode="U" horiz-adv-x="1478" d="M8 864v47q0 293 82 519q6 6 90 14q80 0 80 -76l-33 -170q-16 -129 -18 -258q0 -571 229 -727l37 -12q76 0 160 153q61 152 61 391v27q0 461 -110 725q-6 14 -6 33v14q0 53 69 62h90q31 -35 78 -195q88 -315 88 -612q0 -467 -203 -674q-129 -106 -264 -107 q-203 0 -309 238q-121 238 -121 608z" />
<glyph unicode="V" horiz-adv-x="1366" d="M23 1149v39q18 10 47 47l32 2h27q84 0 94 -49q74 -209 170 -393l148 -277q16 23 84 230q207 666 368 888q84 88 129 88q20 -12 78 -32l10 -15q0 -63 -202 -422q-74 -137 -187 -614q-119 -342 -119 -446q-29 -227 -145 -228q-53 0 -72 27q-49 80 -86 201q-49 186 -110 299 q-143 242 -221 428q-45 135 -45 227z" />
<glyph unicode="W" horiz-adv-x="1933" d="M8 1034v47q0 195 105 244l24 4q43 0 94 -41v-325q0 -256 56 -420h2q68 201 67 297q35 256 72 354q33 90 74 90l20 4h4q31 0 115 -43q190 -674 387 -999v-2h4q74 299 74 643v123q0 270 -41 692q20 20 113 41l16 16q59 -63 88 -137q31 -342 31 -616v-25q0 -502 -88 -934 q-33 -96 -95 -129q-37 -10 -75 -10q-170 147 -228 280q-80 147 -233 527l-31 67h-2q-39 -88 -61 -428q0 -176 -51 -387q-18 -53 -29 -53l-70 -6q-90 0 -90 49q-252 666 -252 1077z" />
<glyph unicode="X" horiz-adv-x="1366" d="M0 0v16q0 86 158 275q172 211 207 284q-4 29 -183 218q-168 209 -168 301v28q0 68 74 105h4q121 -18 121 -49q78 -166 209 -344l76 -84h4l276 340q176 184 223 213q143 -23 144 -74l4 -19q0 -86 -137 -182q-258 -274 -338 -410l-17 -24q37 -70 183 -203q98 -70 194 -82 l74 -82q0 -68 -74 -96l-35 -31q-88 0 -251 109q-53 41 -211 197q-143 -129 -203 -220q-80 -115 -127 -221q0 -12 -45 -26q-43 -27 -64 -27h-22q-63 0 -76 88z" />
<glyph unicode="Y" horiz-adv-x="1366" d="M20 82v20q0 129 95 183h14q14 0 21 -17h14q14 0 37 -155q33 -172 75 -252q166 -295 306 -295q72 0 166 106q133 170 133 506q-14 313 -41 342q-23 82 -54 330q-4 0 -86 -148q-167 -288 -399 -288h-2q-154 0 -197 123q-10 51 -10 122q0 182 131 476q59 94 117 94h16 q55 0 86 -45l7 -31q0 -35 -54 -119q-82 -184 -82 -346q4 -94 11 -94q113 33 237 256q55 102 107 283q27 102 51 276q8 6 22 6l37 37h4l29 -8h43q49 0 49 -51q45 -199 98 -650q59 -344 60 -651v-41q0 -264 -170 -493q-119 -143 -285 -144h-8q-283 0 -487 359q-90 164 -91 309 zM315 1325l7 -4v8h-7v-4z" />
<glyph unicode="Z" horiz-adv-x="1251" d="M8 82v12q0 111 211 191q307 154 674 424q178 125 493 421q-197 -20 -774 -102l-192 -20q-59 37 -60 116q0 100 80 144q37 -6 101 -6h45q141 0 571 71q332 29 465 49q145 37 188 37h15q66 0 65 -28q18 -31 19 -74v-10q0 -147 -324 -316q-289 -274 -475 -393 q-86 -70 -424 -307v-4q279 -20 657 -21h517l299 -2q53 -68 53 -125v-14q0 -70 -72 -96l-35 -2q-262 24 -461 24h-16h-14q-154 0 -592 -14l-410 8q-266 0 -452 -68l-47 -4h-19q-57 0 -80 64z" />
<glyph unicode="[" horiz-adv-x="569" d="M0 934v102l27 244q0 221 77 264q41 23 107 23h29l350 -23q20 -39 20 -74q0 -33 -49 -137q-385 -4 -385 -26q-29 -141 -29 -310q0 -106 39 -688v-69l-10 -39q45 -68 242 -68h121q119 0 118 -20q29 -41 29 -70v-23q0 -55 -29 -55q-80 -57 -249 -57h-11q-156 0 -329 35 q-68 463 -68 991z" />
<glyph unicode="\" horiz-adv-x="569" d="M0 1282v16q8 14 18 15l-4 8q10 20 27 20l31 -8l-4 27v4q0 19 10 25h6q29 -6 121 -52q53 -102 307 -376q590 -573 590 -603q74 -90 127 -131q90 -133 90 -227q-33 -41 -76 -41h-10q-76 0 -184 166q-131 156 -600 602q-334 346 -398 475q-10 8 -51 80z" />
<glyph unicode="]" horiz-adv-x="569" d="M8 20v23q0 29 33 70q0 20 123 20h135q205 0 254 68l-10 39v69q41 582 41 688q0 168 -31 310q0 23 -414 26q-51 104 -51 137q0 35 23 74l374 23h31q70 0 113 -23q84 -43 84 -264l30 -244v-102q0 -528 -73 -991q-186 -35 -355 -35h-8q-180 0 -266 57q-33 0 -33 55z" />
<glyph unicode="^" horiz-adv-x="960" d="M14 1116v12q0 76 158 224q45 49 113 166q33 38 80 38h36q51 -104 228 -350q23 -31 22 -41v-4l-14 -47l4 -24l-2 -3h-2q0 4 -25 11l-47 -15q-23 0 -112 101q-51 80 -101 129q-176 -143 -190 -232q0 -27 -109 -26l-16 -4q-23 31 -23 65z" />
<glyph unicode="_" d="M23 -190q0 8 10 22l-4 14q0 33 260 62l88 2h39q86 0 581 -37l90 -2q55 0 189 16q96 0 96 -116q-23 -41 -104 -80q-20 -14 -74 -19q-33 2 -41 9q-59 -8 -139 -9h-49q-66 0 -531 29h-67q-135 0 -263 -27l-79 54l-2 4v16q10 23 22 23q-23 25 -22 39z" />
<glyph unicode="`" horiz-adv-x="681" d="M23 1468l67 88q43 1 80 -38q66 -117 113 -166q156 -147 155 -224v-12q0 -35 -18 -65l-21 4q-106 0 -106 26q-12 88 -195 232q-55 27 -75 155z" />
<glyph unicode="a" d="M0 328v8q0 172 221 424q135 111 316 188q51 39 100 39h14q59 0 78 -98q0 -55 66 -338q43 -162 127 -270q51 -74 51 -117v-19q0 -35 -43 -34q-45 -29 -60 -29q-84 29 -149 135q-39 74 -125 283l-18 22q-109 -170 -189 -260q-102 -104 -227 -104q-121 0 -158 127zM213 367 l4 -5h4q72 0 146 127q137 168 137 265l-2 4h-8q-51 -18 -195 -162q-86 -108 -86 -229z" />
<glyph unicode="b" d="M0 944v35q0 150 59 567q35 117 127 117h19q53 0 63 -70v-6q0 -16 -37 -162q-41 -246 -41 -397v-20l-4 -15l4 -12v-27q0 -90 23 -194q128 153 331 153h3q154 -8 262 -30q35 -90 35 -168v-13q0 -268 -293 -489q-164 -100 -307 -100h-19q-100 0 -192 92q-25 76 -25 141 l10 197zM248 324h2q375 57 375 313l-4 43q-63 12 -105 12q-180 0 -237 -209q-21 -57 -31 -159z" />
<glyph unicode="c" horiz-adv-x="1024" d="M0 408v28q0 231 190 398q76 47 144 47h10q61 0 113 -35q-4 -8 -4 -31l16 -41v-16q-29 -53 -115 -82q-88 -27 -114 -74q-33 -70 -33 -113v-20q0 -88 104 -104h41q100 0 348 112q106 43 140 43h8q51 -51 53 -76q-2 -16 -92 -100q-20 -43 -45 -43q-279 -164 -477 -164 q-211 0 -279 201z" />
<glyph unicode="d" d="M0 287v18q0 86 182 279q180 147 287 159q35 16 35 52q-33 365 -33 475v86l98 71q17 13 31 13h33q0 -25 39 -41q29 -20 37 -238l-4 -264v-35q0 -215 151 -508q59 -72 59 -104l3 -21q0 -18 -52 -90h-47q-104 0 -147 137q-20 53 -68 107q-43 -102 -170 -184 q-150 -76 -342 -76q-78 53 -78 59q-14 78 -14 105zM205 309l26 -4q131 0 215 209q14 31 15 47q-145 -45 -207 -155q-49 -81 -49 -97z" />
<glyph unicode="e" d="M0 700v23q0 150 94 188q107 58 189 58q154 0 254 -207q18 -63 18 -98q0 -150 -238 -244v-4q63 -104 164 -105q135 0 295 219q90 106 142 107h8l8 -6v-31l-4 -12q4 -10 8 -13q23 0 29 33h6v-4q0 -49 -90 -168q-14 -25 -21 -57q-43 -10 -43 -35q-82 -137 -250 -197 q-49 -10 -88 -10h-28q-221 0 -439 318v8zM186 672q0 -88 52 -127q35 0 106 55q10 37 10 59q0 94 -80 129l-24 3q-45 0 -45 -31q-19 -31 -19 -88z" />
<glyph unicode="f" horiz-adv-x="569" d="M-145 758v86q0 8 65 18q88 39 146 39h2v4q0 408 139 561q58 15 121 15h22q276 0 393 -305q27 -80 27 -115q-23 -63 -104 -64h-35l-29 -2q-29 119 -63 181q-84 135 -148 135h-14q-86 0 -101 -160l-16 -240q98 -12 426 -24q92 -14 92 -25q0 -16 19 -37v-4q-20 0 -27 -33 q-72 -55 -223 -55h-185q-63 0 -96 -12q39 -537 82 -719l-8 -2h-4q-10 0 -31 12l-22 -57h-17q-18 0 -71 37q-35 0 -35 45q-33 88 -62 563q-10 98 -14 98l-184 31q-35 14 -45 29z" />
<glyph unicode="g" d="M0 428v21q0 252 258 389q99 41 191 41h24q147 0 221 -74q20 -10 21 -27q-29 -18 -31 -24q16 -399 16 -596q0 -377 -61 -480q-92 -184 -246 -184q-150 0 -262 121l-4 10v13q0 43 -80 143q-33 53 -33 98q0 41 25 62h12q12 0 47 -35q37 0 37 -15q27 -88 150 -176q8 0 82 -53 q61 16 106 84q51 102 51 289l-8 371l2 59q-33 -29 -139 -201q-86 -102 -168 -102h-21q-55 0 -122 69q-49 33 -50 80q-18 47 -18 117zM190 414l7 -62q82 45 141 158q78 135 115 192q0 10 -11 11q-68 0 -168 -80q-84 -91 -84 -197v-22z" />
<glyph unicode="h" d="M0 322q8 0 14 663q16 252 43 338q39 0 54 37v2q29 -14 43 -14q8 0 8 16h6q53 -25 53 -37q-49 -330 -49 -715v-14l4 -80q49 39 139 297q39 84 78 84q55 31 76 31h12q35 0 56 -68q39 -96 84 -377q35 -135 73 -204q25 -45 78 -91v-4q-41 -57 -82 -77q-63 0 -151 77 q-49 57 -82 164l-47 225q-43 -57 -142 -301q-55 -111 -114 -168h-23q-31 0 -78 52l-28 16l2 29q0 43 -27 119z" />
<glyph unicode="i" horiz-adv-x="454" d="M23 1225v16q22 74 118 74h19q74 0 92 -39l8 -35v-4q0 -59 -123 -78h-22q-90 8 -90 53zM39 287l27 368q-6 82 -7 226q0 127 86 127q61 0 62 -31q35 -197 35 -422v-90l-6 -324q-23 -16 -74 -26l-21 -25h-4q-27 0 -47 41q0 -20 -6 -20q-45 43 -45 176z" />
<glyph unicode="j" horiz-adv-x="454" d="M-348 -14q0 29 26 51h9q12 0 57 -35l12 -2h19q20 -72 90 -137q57 -49 162 -117q74 27 116 102q47 111 47 297l-12 297l15 195l-7 207q0 149 88 149q63 0 64 -41q35 -203 35 -538l-4 -78l8 -21q0 -451 -64 -534q-90 -209 -262 -209h-4q-152 0 -264 117q-16 16 -16 67 q-115 154 -115 203v27zM143 1165q0 72 119 86h23q68 0 92 -47l6 -28q0 -66 -129 -82h-23q-88 8 -88 71z" />
<glyph unicode="k" horiz-adv-x="1024" d="M0 729q0 43 115 113q20 0 28 706q6 131 19 131q43 31 78 31h14q61 -8 61 -27q16 -121 17 -276v-33q0 -207 -25 -424l348 111l93 12q68 0 106 -35q-10 -31 -10 -75l4 -2q-70 -59 -227 -105q-133 -31 -236 -72q-37 -18 -74 -49v-6q25 -49 162 -94q102 -31 152 -76h22 q16 0 82 -41q270 -121 291 -164v-4q-8 0 -14 -67q-12 -25 -68 -25l-39 -14q-340 156 -457 205q-80 29 -127 36q-16 -39 -16 -96v-14l8 -197q0 -63 -28 -88q-10 -6 -17 -24l2 -5v-4l-2 -2v-2l-4 2h-14l-31 -35l-10 -4q-57 12 -58 23v8l9 33h-15v-27l-10 -10q-31 63 -31 182 l6 283l-4 76l-92 63v2l4 35z" />
<glyph unicode="l" horiz-adv-x="454" d="M0 1661q18 0 33 135q51 41 94 41h12q57 0 58 -49q20 -111 20 -242l-20 -551v-57q0 -258 71 -690v-39q0 -72 -35 -82q-25 0 -88 -21q-20 20 -61 46q-80 516 -80 843v105q0 223 37 463q-8 0 -16 79z" />
<glyph unicode="m" horiz-adv-x="1705" d="M0 223q18 57 18 119l-6 203l2 45q33 0 33 57v17q0 8 47 24q8 18 17 19l39 -17q16 4 106 109q37 31 43 30q150 0 205 -192l12 -33h6q29 63 64 162q23 43 43 59l28 -2l23 29h14q102 -14 109 -41q53 -86 119 -293q55 -168 120 -321q0 -10 -36 -41q0 -16 -13 -17 q-145 0 -194 160q-49 170 -84 236h-4q-137 -397 -203 -398h-27q-115 0 -131 236q-18 186 -33 186q-35 -41 -86 -217q-55 -201 -137 -201q-37 0 -80 33l4 16v13z" />
<glyph unicode="n" d="M8 252q41 154 41 530q66 39 66 45q0 16 12 17q111 -18 111 -35l-7 -27v-4h5q59 57 110 150q80 116 146 116q98 -25 98 -32q43 -100 72 -230q63 -428 96 -555q6 0 16 -55v-8q0 -51 -67 -51h-7q-94 0 -94 37q-47 90 -76 227l-63 397h-4q-106 -129 -250 -502 q-61 -121 -68 -122q0 8 -30 12h-45q-29 0 -29 28z" />
<glyph unicode="o" d="M8 406v14q0 141 39 260q8 10 76 39q12 10 53 69q51 29 172 29h2q154 0 215 -188q18 -49 19 -111v-29q0 -213 -164 -346q-88 -53 -160 -53h-10q-158 0 -227 207q-14 55 -15 109zM203 403q6 -122 52 -122h1q61 29 104 100q31 57 31 117v12q0 90 -67 149q-49 0 -93 -61 q-18 -27 -26 -27l2 -26z" />
<glyph unicode="p" d="M14 717v10q0 29 33 64h-6q-12 0 -14 -17h-4q0 55 86 103l36 47q336 0 488 -133q68 -92 67 -170q0 -123 -170 -267q-135 -100 -266 -100h-8q0 -543 29 -684v-4h-47q-10 -4 -15 -17q-129 33 -129 74q-51 186 -51 570l25 378q0 74 -25 142q-4 0 -6 -23h-6q-8 0 -17 27z M258 426q74 0 164 57q80 68 80 197q-111 82 -185 82q-43 0 -43 -23l-12 -299z" />
<glyph unicode="q" d="M23 422v31q0 94 43 163q29 0 28 33q4 39 51 99q168 186 361 186h24q145 -14 146 -37q104 -106 104 -135q-80 -244 -80 -795l2 -160q237 204 351 204q14 0 26 -3q10 12 99 35q0 -20 47 -23h41v-8l-11 -12q0 -16 31 -16v-9q-78 -84 -137 -104q-158 -51 -240 -139 q-96 -129 -143 -189q-63 -47 -64 -108l-14 -17h-2q0 10 -20 11v4q-25 0 -25 -25l-2 -4h-14q-10 6 -17 25l-30 -13q-63 4 -64 21q0 20 -29 33l-2 172v104q0 358 37 649q-209 -209 -354 -209q-59 0 -98 76q-39 29 -39 94q-4 0 -6 66zM209 432q6 -68 18 -67q229 125 326 370 l4 23q-29 16 -55 16h-15q-57 0 -163 -106q-25 -12 -41 -64q-74 -106 -74 -172z" />
<glyph unicode="r" horiz-adv-x="681" d="M0 735v41q14 49 92 62h6q94 0 113 -131v-17l-4 -35q72 61 201 211q106 99 200 99h8q94 0 95 -41q10 -47 34 -68v-6q-270 -137 -391 -440q-55 -164 -55 -263q-92 -41 -123 -41q0 35 -76 68q0 51 -82 412q-18 72 -18 149z" />
<glyph unicode="s" horiz-adv-x="1024" d="M0 618v9q0 154 193 237q92 45 174 45h26q109 0 121 -55q18 -53 18 -63q-20 -35 -92 -54q-217 -33 -217 -57q33 -53 162 -90q227 -55 330 -103q94 -55 94 -151q0 -156 -279 -209q-80 -14 -149 -14q-281 20 -281 65q-29 31 -28 72v16q0 59 61 107q158 -76 264 -76 q88 0 142 49v4q-86 47 -310 101q-229 68 -229 167z" />
<glyph unicode="t" horiz-adv-x="569" d="M-43 668v8q33 82 166 82q70 -2 70 -10q23 0 32 40l8 3h29l-4 43q0 266 55 677q39 52 105 52h8q70 0 102 -70q-59 -377 -59 -588v-131h39q133 0 295 41l45 2h8q70 0 70 -65q0 -98 -131 -117q-63 -14 -308 -35q0 -6 -18 -6v-8l16 -191q0 -41 -16 -73q18 -27 18 -74v-29 q0 -106 -18 -113l-80 5q-14 0 -35 -21q-80 35 -80 264q0 205 -20 205q-29 29 -195 29q-76 0 -102 80z" />
<glyph unicode="u" d="M23 324v30q0 217 92 365q37 41 69 41q43 0 88 -62q0 -45 -49 -211q-10 -31 -10 -81v-13q70 35 123 180q72 188 100 189l27 2h14q55 0 86 -49q27 -279 90 -455q41 -51 41 -98v-25q0 -27 -18 -39h-37q-115 0 -188 213l-23 35q-129 -147 -197 -188l-30 6q-12 0 -82 -27 l-17 -2q-63 0 -77 141z" />
<glyph unicode="v" horiz-adv-x="1024" d="M0 668v24q0 94 162 94l160 -299l28 -38q90 61 154 319q53 143 86 143l35 2h26q47 0 80 -61q-20 -59 -22 -80l6 -29q-66 -55 -146 -397q-74 -233 -184 -233q-98 0 -223 249q-162 246 -162 306z" />
<glyph unicode="w" horiz-adv-x="1478" d="M0 580v36q0 166 82 222l33 6h30q59 0 68 -82v-14l-14 -199v-12q0 -55 22 -82q37 18 64 80q27 86 32 86q84 29 113 47q57 -10 160 -109q127 -139 149 -139q12 70 13 135v18l-23 308q0 90 27 90q26 24 53 24h14q74 0 103 -96l-11 -100v-39q0 -63 48 -338l4 -84 q0 -147 -33 -148q-52 -34 -108 -34h-3q-113 0 -293 198q-53 49 -92 72q-92 -250 -151 -291q-68 -59 -115 -59q-31 0 -94 117q-78 211 -78 387z" />
<glyph unicode="x" horiz-adv-x="1024" d="M-39 137v13q0 59 133 182q47 53 47 69q-20 33 -82 105q-33 45 -32 86q0 63 41 80l67 35h12q51 0 123 -148q27 -33 43 -33q35 0 258 191q54 47 103 47h14q66 0 90 -72l6 -24q-121 -131 -198 -181l-119 -81q86 -74 231 -183l-4 -33l4 -36q-57 -43 -102 -43q-78 0 -219 122 l-64 39q-47 -6 -151 -98q-72 -72 -142 -72q-6 -27 -12 -26h-6q-27 0 -41 61z" />
<glyph unicode="y" horiz-adv-x="1024" d="M0 -242q37 39 76 39q31 0 123 -71q10 -12 55 -15l143 -88q29 -10 52 -10h4q96 0 125 168q14 88 14 244q0 252 -55 550q-51 -57 -158 -229q-94 -100 -135 -100q-45 -23 -127 -23h-13q-47 0 -90 127q-14 74 -14 148q0 188 72 444q37 72 78 72h22q33 0 78 -39v-10 q0 -70 -60 -312q-18 -68 -18 -155l4 -49h6q41 0 117 96q16 0 39 63q166 307 166 383q12 43 12 99v6q35 31 59 71h66q45 0 70 -37q30 -551 30 -787v-15v-23l31 -428l4 -47q-4 -299 -237 -399q-51 -16 -103 -17q-190 0 -389 230q-47 61 -47 114z" />
<glyph unicode="z" horiz-adv-x="1024" d="M0 236q0 18 43 104q0 18 119 78l303 182q70 53 100 82q-137 -10 -422 -25q-49 23 -49 86q0 90 99 115l81 -14q66 0 523 55h26q92 -20 92 -92q0 -141 -303 -324q-147 -78 -233 -147v-4q74 -12 381 -29q76 -10 125 -27v-10q-20 -98 -47 -98q-172 -27 -322 -27h-78 q-141 0 -239 31l-60 -8h-4q-119 0 -135 72z" />
<glyph unicode="{" horiz-adv-x="772" d="M0 664v16q0 92 154 154l28 20q-43 109 -43 223q0 266 176 346q27 10 62 11h57q37 0 88 8q35 -55 35 -103v-10q0 -41 -188 -92q-78 -33 -78 -131q0 -90 106 -240l13 -32q0 -43 -52 -105q-45 -47 -104 -61v-4q16 -18 111 -76q55 -49 55 -80q-12 -47 -107 -225 q-27 -63 -26 -111q0 -111 162 -143q98 -18 98 -35l4 -53q-4 -45 -23 -45q-16 -4 -71 -5h-4q-264 0 -322 170l-4 52v2q0 86 78 307l6 41q-106 57 -172 110q-39 49 -39 91z" />
<glyph unicode="|" horiz-adv-x="471" d="M23 1421v29q0 92 90 111h24q68 -63 94 -199l7 -49l-7 -51q27 -190 27 -410l-6 -475q0 -297 47 -557q-37 -96 -53 -119h-10q-29 18 -29 35h-2q-12 -35 -35 -35q-8 0 -25 14l-4 -8q-29 0 -39 76q-61 229 -61 608l8 592v23q0 213 -26 415z" />
<glyph unicode="}" horiz-adv-x="778" d="M14 1315v33q0 43 39 94q41 -8 76 -8h74q143 0 215 -211q8 -49 16 -142q0 -121 -49 -231h4q176 -86 176 -135q8 -12 8 -35v-4q0 -111 -190 -197l-25 -18q0 -18 80 -273l8 -75q0 -158 -202 -205q-49 -16 -127 -17h-2q-88 0 -88 19l-9 35q0 63 25 63q211 53 211 86 q16 0 31 82q0 76 -117 285q-14 33 -14 53q8 55 145 133l18 17v4q-98 33 -139 102q-16 47 -16 61v3q10 27 96 174q25 61 25 100q0 92 -78 127q-182 57 -191 80z" />
<glyph unicode="~" horiz-adv-x="874" d="M59 633q12 45 29.5 86t42.5 70.5t59.5 48t81.5 18.5q41 0 78 -10t72 -25.5t74 -29t71 -13.5q41 0 65.5 25.5t31.5 60.5h157q-12 -92 -63 -162q-27 -29 -65 -46t-97 -17q-27 0 -61.5 10t-71.5 27q-37 14 -74 26.5t-65 12.5q-33 0 -64 -21.5t-33 -60.5h-168z" />
<glyph unicode="&#xad;" horiz-adv-x="641" d="M8 395v6q0 55 58 97q33 14 96 14h33q123 0 479 -31q18 -23 18 -51q0 -53 -53 -94l-422 22l-131 -8h-20q-57 0 -58 45z" />
<glyph unicode="&#x2000;" horiz-adv-x="918" />
<glyph unicode="&#x2001;" horiz-adv-x="1837" />
<glyph unicode="&#x2002;" horiz-adv-x="918" />
<glyph unicode="&#x2003;" horiz-adv-x="1837" />
<glyph unicode="&#x2004;" horiz-adv-x="612" />
<glyph unicode="&#x2005;" horiz-adv-x="459" />
<glyph unicode="&#x2006;" horiz-adv-x="306" />
<glyph unicode="&#x2007;" horiz-adv-x="306" />
<glyph unicode="&#x2008;" horiz-adv-x="229" />
<glyph unicode="&#x2009;" horiz-adv-x="367" />
<glyph unicode="&#x200a;" horiz-adv-x="102" />
<glyph unicode="&#x2010;" horiz-adv-x="641" d="M8 395v6q0 55 58 97q33 14 96 14h33q123 0 479 -31q18 -23 18 -51q0 -53 -53 -94l-422 22l-131 -8h-20q-57 0 -58 45z" />
<glyph unicode="&#x2011;" horiz-adv-x="641" d="M8 395v6q0 55 58 97q33 14 96 14h33q123 0 479 -31q18 -23 18 -51q0 -53 -53 -94l-422 22l-131 -8h-20q-57 0 -58 45z" />
<glyph unicode="&#x2012;" horiz-adv-x="641" d="M8 395v6q0 55 58 97q33 14 96 14h33q123 0 479 -31q18 -23 18 -51q0 -53 -53 -94l-422 22l-131 -8h-20q-57 0 -58 45z" />
<glyph unicode="&#x2013;" horiz-adv-x="981" d="M8 395v6q0 55 87 97q49 14 144 14h49q184 0 717 -31q27 -23 27 -51q0 -53 -79 -94l-632 22l-196 -8h-30q-86 0 -87 45z" />
<glyph unicode="&#x2014;" horiz-adv-x="2005" d="M8 395v6q0 55 174 97q98 14 287 14h99q368 0 1434 -31q54 -23 54 -51q0 -53 -159 -94l-1263 22l-392 -8h-60q-171 0 -174 45z" />
<glyph unicode="&#x202f;" horiz-adv-x="367" />
<glyph unicode="&#x205f;" horiz-adv-x="459" />
<glyph unicode="&#xe000;" horiz-adv-x="768" d="M0 0v768h768v-768h-768z" />
</font>
</defs>
</svg>
